<svg width="248" height="249" viewBox="0 0 248 249" fill="none" xmlns="http://www.w3.org/2000/svg">
<g filter="url(#filter0_d_102_77)">
<path d="M239.71 68.6524C222.11 -36.5476 104.71 2.15245 48.2097 34.6524C-58.1903 104.252 52.2097 192.652 120.71 228.152C213.21 276.09 257.31 173.852 239.71 68.6524Z" fill="#F07E42"/>
<path d="M5.50876 89.3505C9.01688 70.9 21.9504 52.4301 48.4715 35.0787C76.6881 18.85 120.069 1.10046 158.555 0.514888C177.792 0.222183 195.763 4.21852 210.01 14.7899C224.249 25.3547 234.833 42.5335 239.217 68.7349C248.005 121.264 241.374 172.987 221.073 205.565C210.929 221.844 197.389 233.318 180.673 237.765C163.958 242.212 143.987 239.652 120.94 227.709C86.717 209.973 42.0838 179.047 19.2917 143.918C7.9012 126.362 1.99911 107.809 5.50876 89.3505Z" stroke="#F07E42"/>
</g>
<path d="M70.2897 87.1524V40.3684H97.8097V45.6164H75.9217V61.1684H96.1457V66.4164H76.0497V87.1524H70.2897ZM109.305 87.1524V81.9044H118.841V45.6804H109.305V40.4324H134.265V45.6804H124.729V81.9044H134.265V87.1524H109.305ZM146.72 87.1524V40.4324H154.4L168.672 80.4324C168.586 79.3658 168.48 78.0644 168.352 76.5284C168.266 74.9498 168.181 73.3071 168.096 71.6004C168.053 69.8511 168.032 68.2084 168.032 66.6724V40.4324H173.6V87.1524H165.92L151.712 47.1524C151.797 48.1764 151.882 49.4778 151.968 51.0564C152.053 52.5924 152.117 54.2351 152.16 55.9844C152.245 57.6911 152.288 59.3338 152.288 60.9124V87.1524H146.72ZM80.5297 171.152V129.616H67.7297V124.368H99.0897V129.616H86.2897V171.152H80.5297ZM108.985 171.152V124.432H135.865V129.68H114.681V144.144H133.625V149.328H114.681V165.904H135.865V171.152H108.985ZM160.416 171.792C157.6 171.792 155.146 171.259 153.056 170.192C151.008 169.126 149.408 167.59 148.256 165.584C147.146 163.536 146.592 161.126 146.592 158.352V137.232C146.592 134.416 147.146 132.006 148.256 130C149.408 127.995 151.008 126.459 153.056 125.392C155.146 124.326 157.6 123.792 160.416 123.792C163.232 123.792 165.664 124.347 167.712 125.456C169.76 126.523 171.338 128.059 172.448 130.064C173.557 132.07 174.112 134.459 174.112 137.232H168.352C168.352 134.587 167.648 132.56 166.24 131.152C164.874 129.702 162.933 128.976 160.416 128.976C157.898 128.976 155.914 129.68 154.464 131.088C153.056 132.496 152.352 134.523 152.352 137.168V158.352C152.352 160.998 153.056 163.046 154.464 164.496C155.914 165.904 157.898 166.608 160.416 166.608C162.933 166.608 164.874 165.904 166.24 164.496C167.648 163.046 168.352 160.998 168.352 158.352H174.112C174.112 161.083 173.557 163.472 172.448 165.52C171.338 167.526 169.76 169.083 167.712 170.192C165.664 171.259 163.232 171.792 160.416 171.792ZM185.287 171.152V124.432H191.047V144.4H206.023V124.432H211.783V171.152H206.023V149.648H191.047V171.152H185.287Z" fill="white"/>
<defs>
<filter id="filter0_d_102_77" x="0" y="0" width="247.515" height="248.312" filterUnits="userSpaceOnUse" color-interpolation-filters="sRGB">
<feFlood flood-opacity="0" result="BackgroundImageFix"/>
<feColorMatrix in="SourceAlpha" type="matrix" values="0 0 0 0 0 0 0 0 0 0 0 0 0 0 0 0 0 0 127 0" result="hardAlpha"/>
<feOffset dy="4"/>
<feGaussianBlur stdDeviation="2"/>
<feComposite in2="hardAlpha" operator="out"/>
<feColorMatrix type="matrix" values="0 0 0 0 0 0 0 0 0 0 0 0 0 0 0 0 0 0 0.25 0"/>
<feBlend mode="normal" in2="BackgroundImageFix" result="effect1_dropShadow_102_77"/>
<feBlend mode="normal" in="SourceGraphic" in2="effect1_dropShadow_102_77" result="shape"/>
</filter>
</defs>
</svg>
